<svg xmlns="http://www.w3.org/2000/svg" width="128" height="128" viewBox="0 0 128 128">
  <defs>
    <linearGradient id="bg" x1="0%" y1="0%" x2="100%" y2="100%">
      <stop offset="0%" style="stop-color:#0d1630"/>
      <stop offset="55%" style="stop-color:#152a48"/>
      <stop offset="100%" style="stop-color:#0a1228"/>
    </linearGradient>
    <linearGradient id="nGlow" x1="0%" y1="0%" x2="100%" y2="100%">
      <stop offset="0%" style="stop-color:#6fffb0"/>
      <stop offset="45%" style="stop-color:#3ee8a0"/>
      <stop offset="100%" style="stop-color:#1fc88a"/>
    </linearGradient>
    <filter id="softGlow" x="-20%" y="-20%" width="140%" height="140%">
      <feGaussianBlur stdDeviation="1.2" result="b"/>
      <feMerge>
        <feMergeNode in="b"/>
        <feMergeNode in="SourceGraphic"/>
      </feMerge>
    </filter>
  </defs>
  <rect width="128" height="128" rx="26" fill="url(#bg)"/>
  <rect x="2" y="2" width="124" height="124" rx="24" fill="none" stroke="#2a5080" stroke-width="1" opacity="0.55"/>
  <path filter="url(#softGlow)" d="M28 78c0-20 14-38 36-38 17 0 30 11 36 28l-11 6c-4-11-13-19-25-19-14 0-24 10-24 23 0 13 10 23 24 23 10 0 19-6 23-15H70V72h47v8c0 22-21 40-47 40-24 0-42-18-42-42z" fill="url(#nGlow)"/>
  <circle cx="84" cy="45" r="7" fill="#e8fff5" opacity="0.95"/>
  <circle cx="84" cy="45" r="3.5" fill="#1a3044" opacity="0.35"/>
</svg>
